# xmcd CD database file
#
# Track frame offsets:
#	183
#	14925
#	30318
#	53708
#	69493
#	83180
#	103443
#	123843
#	139650
#	159385
#
# Disc length: 2353 seconds
#
# Revision: 3
# Processed by: cddbd v1.4PL0 Copyright (c) Steve Scherf et al.
# Submitted via: CDex 1.40Release
#
DISCID=83092f0a
DTITLE=Poul Krebs - Hvor gaden blir til sand
DYEAR=1988
DGENRE=Pop-Folk
TTITLE0=Dansen
TTITLE1=Hvis bare du tror på mig
TTITLE2=Hvert sekund
TTITLE3=Min generation
TTITLE4=Gemmer på alt
TTITLE5=For enden af regnbuen
TTITLE6=En lidt længere rejse
TTITLE7=I dag og i nat
TTITLE8=Du er her endnu
TTITLE9=Jeg vil altid huske dig
EXTD=YEAR: 1988 ID3G: 53
EXTT0=
EXTT1=
EXTT2=
EXTT3=
EXTT4=
EXTT5=
EXTT6=
EXTT7=
EXTT8=
EXTT9=
PLAYORDER=
